<?xml version="1.0" encoding="UTF-8" standalone="no"?>
<!-- Created with Inkscape (http://www.inkscape.org/) -->

<svg
   width="256"
   height="256"
   viewBox="0 0 67.733332 67.733333"
   version="1.1"
   id="svg5"
   xml:space="preserve"
   inkscape:version="1.2.2 (b0a8486541, 2022-12-01)"
   sodipodi:docname="icon.svg"
   inkscape:export-filename="icon.png"
   inkscape:export-xdpi="192"
   inkscape:export-ydpi="192"
   xmlns:inkscape="http://www.inkscape.org/namespaces/inkscape"
   xmlns:sodipodi="http://sodipodi.sourceforge.net/DTD/sodipodi-0.dtd"
   xmlns:xlink="http://www.w3.org/1999/xlink"
   xmlns="http://www.w3.org/2000/svg"
   xmlns:svg="http://www.w3.org/2000/svg"><sodipodi:namedview
     id="namedview7"
     pagecolor="#ffffff"
     bordercolor="#666666"
     borderopacity="1.0"
     inkscape:showpageshadow="2"
     inkscape:pageopacity="0.0"
     inkscape:pagecheckerboard="0"
     inkscape:deskcolor="#d1d1d1"
     inkscape:document-units="mm"
     showgrid="false"
     inkscape:zoom="1.3266287"
     inkscape:cx="-250.25841"
     inkscape:cy="60.303231"
     inkscape:window-width="3440"
     inkscape:window-height="1365"
     inkscape:window-x="0"
     inkscape:window-y="0"
     inkscape:window-maximized="1"
     inkscape:current-layer="g5858" /><defs
     id="defs2"><linearGradient
       inkscape:collect="always"
       id="linearGradient5595"><stop
         style="stop-color:#00e9cb;stop-opacity:1;"
         offset="0"
         id="stop5591" /><stop
         style="stop-color:#00ffdd;stop-opacity:0;"
         offset="1"
         id="stop5593" /></linearGradient><linearGradient
       inkscape:collect="always"
       id="linearGradient5461"><stop
         style="stop-color:#a500a5;stop-opacity:1;"
         offset="0"
         id="stop5457" /><stop
         style="stop-color:#d700d7;stop-opacity:0;"
         offset="1"
         id="stop5459" /></linearGradient><linearGradient
       inkscape:collect="always"
       id="linearGradient5429"><stop
         style="stop-color:#c200c2;stop-opacity:1;"
         offset="0"
         id="stop5425" /><stop
         style="stop-color:#d700d7;stop-opacity:1;"
         offset="1"
         id="stop5427" /></linearGradient><linearGradient
       inkscape:collect="always"
       id="linearGradient5402"><stop
         style="stop-color:#e0ba00;stop-opacity:1;"
         offset="0"
         id="stop5398" /><stop
         style="stop-color:#ffd400;stop-opacity:0;"
         offset="1"
         id="stop5400" /></linearGradient><linearGradient
       inkscape:collect="always"
       id="linearGradient5264"><stop
         style="stop-color:#ba00ba;stop-opacity:1;"
         offset="0"
         id="stop5260" /><stop
         style="stop-color:#d700d7;stop-opacity:1;"
         offset="1"
         id="stop5262" /></linearGradient><linearGradient
       inkscape:collect="always"
       id="linearGradient5256"><stop
         style="stop-color:#b400b4;stop-opacity:1;"
         offset="0"
         id="stop5252" /><stop
         style="stop-color:#d700d7;stop-opacity:1;"
         offset="1"
         id="stop5254" /></linearGradient><linearGradient
       inkscape:collect="always"
       id="linearGradient5248"><stop
         style="stop-color:#000000;stop-opacity:0.0809911;"
         offset="0"
         id="stop5244" /><stop
         style="stop-color:#666666;stop-opacity:0;"
         offset="1"
         id="stop5246" /></linearGradient><linearGradient
       inkscape:collect="always"
       id="linearGradient5186"><stop
         style="stop-color:#00e0c1;stop-opacity:1;"
         offset="0"
         id="stop5182" /><stop
         style="stop-color:#00ffdd;stop-opacity:0;"
         offset="1"
         id="stop5184" /></linearGradient><linearGradient
       inkscape:collect="always"
       id="linearGradient5142"><stop
         style="stop-color:#00dcbf;stop-opacity:1;"
         offset="0"
         id="stop5138" /><stop
         style="stop-color:#00ffdd;stop-opacity:1;"
         offset="1"
         id="stop5140" /></linearGradient><linearGradient
       inkscape:collect="always"
       id="linearGradient5134"><stop
         style="stop-color:#00e0c2;stop-opacity:1;"
         offset="0"
         id="stop5130" /><stop
         style="stop-color:#00ffdd;stop-opacity:1;"
         offset="1"
         id="stop5132" /></linearGradient><linearGradient
       inkscape:collect="always"
       id="linearGradient5126"><stop
         style="stop-color:#00eacb;stop-opacity:1;"
         offset="0"
         id="stop5122" /><stop
         style="stop-color:#00ffdd;stop-opacity:1;"
         offset="1"
         id="stop5124" /></linearGradient><linearGradient
       inkscape:collect="always"
       id="linearGradient5118"><stop
         style="stop-color:#00ebcc;stop-opacity:1;"
         offset="0"
         id="stop5114" /><stop
         style="stop-color:#07ffde;stop-opacity:1;"
         offset="1"
         id="stop5116" /></linearGradient><linearGradient
       inkscape:collect="always"
       id="linearGradient5089"><stop
         style="stop-color:#00e9ca;stop-opacity:1;"
         offset="0"
         id="stop5085" /><stop
         style="stop-color:#00ffdd;stop-opacity:1;"
         offset="1"
         id="stop5087" /></linearGradient><linearGradient
       inkscape:collect="always"
       xlink:href="#linearGradient5264"
       id="linearGradient5551"
       gradientUnits="userSpaceOnUse"
       gradientTransform="translate(-1.9116597)"
       x1="-271.6481"
       y1="182.15904"
       x2="-258.27829"
       y2="168.73344" /><linearGradient
       inkscape:collect="always"
       xlink:href="#linearGradient5264"
       id="linearGradient5553"
       gradientUnits="userSpaceOnUse"
       gradientTransform="matrix(-1,0,0,1,-591.88686,0)"
       x1="-271.6481"
       y1="182.15904"
       x2="-258.27829"
       y2="168.73344" /><linearGradient
       inkscape:collect="always"
       xlink:href="#linearGradient5256"
       id="linearGradient5555"
       gradientUnits="userSpaceOnUse"
       gradientTransform="translate(-1.9116597)"
       x1="-283.81403"
       y1="191.01195"
       x2="-275.72003"
       y2="189.04008" /><linearGradient
       inkscape:collect="always"
       xlink:href="#linearGradient5256"
       id="linearGradient5557"
       gradientUnits="userSpaceOnUse"
       gradientTransform="matrix(-1,0,0,1,-591.88686,0)"
       x1="-283.81403"
       y1="191.01195"
       x2="-275.72003"
       y2="189.04008" /><linearGradient
       inkscape:collect="always"
       xlink:href="#linearGradient5429"
       id="linearGradient5559"
       gradientUnits="userSpaceOnUse"
       x1="-295.11456"
       y1="170.77602"
       x2="-294.41891"
       y2="197.71837" /><radialGradient
       inkscape:collect="always"
       xlink:href="#linearGradient5461"
       id="radialGradient5561"
       gradientUnits="userSpaceOnUse"
       gradientTransform="matrix(-0.00322179,0.62783381,-1.3972181,-0.00716988,-70.420529,357.21682)"
       cx="-300.02094"
       cy="161.5088"
       fx="-300.02094"
       fy="161.5088"
       r="48.501102" /><linearGradient
       inkscape:collect="always"
       xlink:href="#linearGradient5142"
       id="linearGradient5563"
       gradientUnits="userSpaceOnUse"
       x1="-247.23056"
       y1="115.64221"
       x2="-236.05408"
       y2="138.15019" /><linearGradient
       inkscape:collect="always"
       xlink:href="#linearGradient5134"
       id="linearGradient5565"
       gradientUnits="userSpaceOnUse"
       x1="-212.31168"
       y1="80.946205"
       x2="-197.5202"
       y2="103.69454" /><linearGradient
       inkscape:collect="always"
       xlink:href="#linearGradient5126"
       id="linearGradient5567"
       gradientUnits="userSpaceOnUse"
       x1="-191.62727"
       y1="58.777493"
       x2="-178.94566"
       y2="87.633827" /><linearGradient
       inkscape:collect="always"
       xlink:href="#linearGradient5118"
       id="linearGradient5569"
       gradientUnits="userSpaceOnUse"
       x1="-176.77492"
       y1="18.297199"
       x2="-166.13701"
       y2="36.776028" /><linearGradient
       inkscape:collect="always"
       xlink:href="#linearGradient5089"
       id="linearGradient5571"
       gradientUnits="userSpaceOnUse"
       x1="-214.71597"
       y1="-20.177778"
       x2="-184.70615"
       y2="23.64682" /><linearGradient
       inkscape:collect="always"
       xlink:href="#linearGradient5595"
       id="linearGradient5573"
       gradientUnits="userSpaceOnUse"
       gradientTransform="translate(2.1807278e-6)"
       x1="-269.91751"
       y1="71.480736"
       x2="-225.86877"
       y2="50.385624" /><linearGradient
       inkscape:collect="always"
       xlink:href="#linearGradient5142"
       id="linearGradient5575"
       gradientUnits="userSpaceOnUse"
       x1="-247.23056"
       y1="115.64221"
       x2="-236.05408"
       y2="138.15019" /><linearGradient
       inkscape:collect="always"
       xlink:href="#linearGradient5134"
       id="linearGradient5577"
       gradientUnits="userSpaceOnUse"
       x1="-212.31168"
       y1="80.946205"
       x2="-197.5202"
       y2="103.69454" /><linearGradient
       inkscape:collect="always"
       xlink:href="#linearGradient5126"
       id="linearGradient5579"
       gradientUnits="userSpaceOnUse"
       x1="-191.62727"
       y1="58.777493"
       x2="-178.94566"
       y2="87.633827" /><linearGradient
       inkscape:collect="always"
       xlink:href="#linearGradient5118"
       id="linearGradient5581"
       gradientUnits="userSpaceOnUse"
       x1="-176.77492"
       y1="18.297199"
       x2="-166.13701"
       y2="36.776028" /><linearGradient
       inkscape:collect="always"
       xlink:href="#linearGradient5089"
       id="linearGradient5583"
       gradientUnits="userSpaceOnUse"
       x1="-214.71597"
       y1="-20.177778"
       x2="-184.70615"
       y2="23.64682" /><linearGradient
       inkscape:collect="always"
       xlink:href="#linearGradient5186"
       id="linearGradient5585"
       gradientUnits="userSpaceOnUse"
       x1="-269.91751"
       y1="71.480736"
       x2="-225.86877"
       y2="50.385624" /><linearGradient
       inkscape:collect="always"
       xlink:href="#linearGradient5248"
       id="linearGradient5587"
       gradientUnits="userSpaceOnUse"
       x1="-294.8778"
       y1="98.601925"
       x2="-267.77924"
       y2="98.601929" /><linearGradient
       inkscape:collect="always"
       xlink:href="#linearGradient5402"
       id="linearGradient5589"
       gradientUnits="userSpaceOnUse"
       x1="-295.24038"
       y1="-12.404928"
       x2="-275.022"
       y2="-12.404928" /></defs><g
     inkscape:label="Layer 1"
     inkscape:groupmode="layer"
     id="layer1"><g
       id="g5549"
       transform="matrix(0.19830495,0,0,0.19830495,92.333712,22.052669)"
       style="stroke-width:5.04274"><g
         id="g5858"
         transform="translate(0,-5.097976)"><g
           id="g5827"
           transform="matrix(1.6400154,0,0,1.6400154,190.02013,-133.16157)"
           style="stroke-width:3.07482"><g
             id="g5505"
             style="stroke-width:3.07482"><path
               id="path5493"
               style="fill:url(#linearGradient5551);fill-opacity:1;stroke-width:6.14957;stroke-linecap:round;stroke-linejoin:round;stop-color:#000000"
               inkscape:transform-center-x="-24.030731"
               inkscape:transform-center-y="16.59757"
               d="m -293.32985,156.62706 c -1.92421,0.024 -3.33719,0.42406 -4.00906,1.3218 7.02562,-3.43993 31.31201,28.228 35.23181,35.01731 0.002,0.003 0.003,0.005 0.004,0.008 4.72747,0.3734 9.47319,-1.9284 12.00224,-6.30885 3.50541,-6.07156 1.4247,-13.83495 -4.64685,-17.34037 -5.028,-2.90291 -28.62764,-12.822 -38.5823,-12.69768 z" /><path
               id="path5495"
               style="fill:url(#linearGradient5553);fill-opacity:1;stroke-width:6.14957;stroke-linecap:round;stroke-linejoin:round;stop-color:#000000"
               inkscape:transform-center-x="24.030728"
               inkscape:transform-center-y="16.59757"
               d="m -300.46867,156.62706 c 1.92421,0.024 3.33719,0.42406 4.00906,1.3218 -7.02562,-3.43993 -31.31201,28.228 -35.23181,35.01731 -0.002,0.003 -0.003,0.005 -0.004,0.008 -4.72747,0.3734 -9.47319,-1.9284 -12.00224,-6.30885 -3.50541,-6.07156 -1.4247,-13.83495 4.64685,-17.34037 5.028,-2.90291 28.62764,-12.822 38.5823,-12.69768 z" /><path
               id="path5497"
               style="fill:url(#linearGradient5555);fill-opacity:1;stroke-width:6.14957;stroke-linecap:round;stroke-linejoin:round;stop-color:#000000"
               d="m -262.10701,192.96608 c 3.94645,6.83545 1.60446,15.57591 -5.23099,19.52237 -6.83545,3.94644 -15.57592,1.60443 -19.52236,-5.23101 -3.94645,-6.83546 -17.45486,-45.28775 -10.61942,-49.2342 6.83546,-3.94643 31.42633,28.1074 35.37277,34.94284 z"
               sodipodi:nodetypes="sssss"
               inkscape:transform-center-x="-17.370823"
               inkscape:transform-center-y="27.767605" /><path
               id="path5499"
               style="fill:url(#linearGradient5557);fill-opacity:1;stroke-width:6.14957;stroke-linecap:round;stroke-linejoin:round;stop-color:#000000"
               d="m -331.69151,192.96608 c -3.94645,6.83545 -1.60446,15.57591 5.23099,19.52237 6.83545,3.94644 15.57592,1.60443 19.52236,-5.23101 3.94645,-6.83546 17.45486,-45.28775 10.61942,-49.2342 -6.83546,-3.94643 -31.42633,28.1074 -35.37277,34.94284 z"
               sodipodi:nodetypes="sssss"
               inkscape:transform-center-x="17.37082"
               inkscape:transform-center-y="27.767605" /><path
               id="path5501"
               style="fill:url(#linearGradient5559);fill-opacity:1;stroke-width:6.14957;stroke-linecap:round;stroke-linejoin:round;stop-color:#000000"
               d="m -309.58791,205.86829 c 0,7.89289 6.39845,14.29136 14.29135,14.29137 7.8929,0 14.29136,-6.39848 14.29136,-14.29137 -10e-6,-7.8929 -7.52753,-47.94776 -15.42042,-47.94777 -7.89289,1e-5 -13.16229,40.05488 -13.16229,47.94777 z"
               sodipodi:nodetypes="sssss"
               inkscape:transform-center-x="-1.269601"
               inkscape:transform-center-y="30.745931" /><path
               id="path5503"
               style="fill:url(#radialGradient5561);fill-opacity:1;stroke-width:6.14957;stroke-linecap:round;stroke-linejoin:round;stop-color:#000000"
               inkscape:transform-center-x="-24.030731"
               inkscape:transform-center-y="16.59757"
               d="m -300.46848,156.62713 c -9.95465,-0.12432 -33.55415,9.79503 -38.58214,12.69794 -6.07155,3.50541 -8.15267,11.26847 -4.64726,17.34002 2.52895,4.38029 7.27455,6.68237 12.00185,6.30918 -3.9398,6.83422 -1.59735,15.56919 5.23534,19.51405 5.82499,3.36306 13.03134,2.15677 17.47748,-2.50269 1.76817,5.88518 7.22539,10.17405 13.68651,10.17406 5.69191,0 10.60572,-3.32835 12.90412,-8.14421 4.37766,2.90364 10.1963,3.27765 15.05438,0.47284 6.83269,-3.94486 9.17564,-12.67983 5.23585,-19.51405 4.7273,0.37319 9.47238,-1.92889 12.00134,-6.30918 3.5054,-6.07155 1.4248,-13.83461 -4.64675,-17.34002 -5.02799,-2.90291 -28.62749,-12.82226 -38.58214,-12.69794 -3.03178,1.11057 -4.67149,0.0464 -7.13858,0 z"
               sodipodi:nodetypes="csscscscscsscc" /></g></g><g
           id="g5541"
           transform="translate(0.09281569)"
           style="stroke-width:5.04274"><g
             id="g5519"
             transform="matrix(-1,0,0,1,-589.85366,0)"
             style="stroke-width:5.04274"><path
               id="path5507"
               style="fill:url(#linearGradient5563);fill-opacity:1;stroke:none;stroke-width:1.33423px;stroke-linecap:butt;stroke-linejoin:miter;stroke-opacity:1"
               d="m -244.55355,113.71709 c -8.64011,6.11475 -15.6905,12.47232 -21.51445,18.99419 30.2494,40.53442 60.02786,28.06185 60.02786,28.06185 -2.58069,1.26977 -18.94706,-21.534 -33.80937,-48.13358 -2.57753,-1.5757 -3.15716,-1.57272 -4.70404,1.07754 z"
               sodipodi:nodetypes="ccccc" /><path
               id="path5509"
               style="fill:url(#linearGradient5565);fill-opacity:1;stroke:none;stroke-width:1.33423px;stroke-linecap:butt;stroke-linejoin:miter;stroke-opacity:1"
               d="m -224.53823,125.46004 c 49.23181,24.07232 71.15216,0.70664 72.32013,-0.59583 -2.49638,2.11603 -26.75318,-8.97726 -56.33558,-28.083554 -10.01605,-1.441938 -19.47754,-3.667633 -27.84016,-5.771741 -4.47602,10.850135 -7.12587,18.040675 -6.90009,20.777085 1.43534,2.70137 9.73297,8.75512 18.7557,13.67404 z m 72.32013,-0.59583 c 0.0438,-0.0371 0.0823,-0.0777 0.11266,-0.12299 0,0 -0.0798,0.0863 -0.11266,0.12299 z"
               sodipodi:nodetypes="ccccccccc" /><path
               id="path5511"
               style="fill:url(#linearGradient5567);fill-opacity:1;stroke:none;stroke-width:1.33423px;stroke-linecap:butt;stroke-linejoin:miter;stroke-opacity:1"
               d="m -191.74902,65.728805 c -10.57596,2.033121 -22.02995,3.286808 -34.11988,4.225065 -4.4451,7.539678 -7.92089,14.741797 -10.52752,21.061246 12.31143,3.099032 27.05216,6.465925 42.33178,7.192326 56.28256,2.675698 63.05248,-26.986983 63.05248,-26.986983 -0.5775,3.126032 -25.93923,1.165137 -60.73686,-5.491654 z"
               sodipodi:nodetypes="cccscc" /><path
               id="path5513"
               style="fill:url(#linearGradient5569);fill-opacity:1;stroke:none;stroke-width:1.33423px;stroke-linecap:butt;stroke-linejoin:miter;stroke-opacity:1"
               inkscape:transform-center-x="-50.488556"
               inkscape:transform-center-y="-8.4335461"
               d="m -124.19143,-0.26622122 c 1.125,3.55768382 -18.74807,16.71610922 -52.57918,18.56071222 -0.001,8.61e-4 -0.003,0.0017 -0.004,0.0026 -22.58727,14.04391 -38.55014,33.772268 -49.09416,51.656796 53.09561,-4.12056 93.97879,-14.272283 101.67734,-70.22010822 z"
               sodipodi:nodetypes="ccccc" /><path
               style="fill:url(#linearGradient5571);fill-opacity:1;stroke:none;stroke-width:1.33423px;stroke-linecap:butt;stroke-linejoin:miter;stroke-opacity:1"
               d="m -283.9854,61.86561 c 0,0 11.40053,-48.778283 61.57793,-70.3706843 46.93822,-20.1985137 89.34264,-88.8566897 87.54767,-92.5048157 0,0 5.64813,89.734066 -41.91511,119.30709 -48.45399,30.126861 -66.44773,86.41974 -65.77853,94.53041 -16.16125,-15.86343 -29.49858,-33.077077 -41.43196,-50.962 z"
               id="path5515"
               sodipodi:nodetypes="cscscc"
               inkscape:transform-center-x="-73.784401"
               inkscape:transform-center-y="-56.79291" /><path
               style="fill:url(#linearGradient5573);fill-opacity:1;stroke:none;stroke-width:1.33423px;stroke-linecap:butt;stroke-linejoin:miter;stroke-opacity:1"
               d="m -283.9854,61.865612 c 0,0 11.40053,-48.778283 61.57793,-70.3706845 46.93822,-20.1985135 89.34264,-88.8566895 87.54767,-92.5048175 0,0 5.64813,89.734068 -41.91511,119.307092 -48.45399,30.126861 -66.44773,86.419738 -65.77853,94.530408 -16.16125,-15.863431 -29.49858,-33.077071 -41.43196,-50.961998 z"
               id="path5517"
               sodipodi:nodetypes="cscscc"
               inkscape:transform-center-x="73.784403"
               inkscape:transform-center-y="-56.79291" /></g><g
             id="g5533"
             style="stroke-width:5.04274"><path
               id="path5521"
               style="fill:url(#linearGradient5575);fill-opacity:1;stroke:none;stroke-width:1.33423px;stroke-linecap:butt;stroke-linejoin:miter;stroke-opacity:1"
               d="m -244.55355,113.71709 c -8.64011,6.11475 -15.6905,12.47232 -21.51445,18.99419 30.2494,40.53442 60.02786,28.06185 60.02786,28.06185 -2.58069,1.26977 -18.94706,-21.534 -33.80937,-48.13358 -2.57753,-1.5757 -3.15716,-1.57272 -4.70404,1.07754 z"
               sodipodi:nodetypes="ccccc" /><path
               id="path5523"
               style="fill:url(#linearGradient5577);fill-opacity:1;stroke:none;stroke-width:1.33423px;stroke-linecap:butt;stroke-linejoin:miter;stroke-opacity:1"
               d="m -224.53823,125.46004 c 49.23181,24.07232 71.15216,0.70664 72.32013,-0.59583 -2.49638,2.11603 -26.75318,-8.97726 -56.33558,-28.083554 -10.01605,-1.441938 -19.47754,-3.667633 -27.84016,-5.771741 -4.47602,10.850135 -7.12587,18.040675 -6.90009,20.777085 1.43534,2.70137 9.73297,8.75512 18.7557,13.67404 z m 72.32013,-0.59583 c 0.0438,-0.0371 0.0823,-0.0777 0.11266,-0.12299 0,0 -0.0798,0.0863 -0.11266,0.12299 z"
               sodipodi:nodetypes="ccccccccc" /><path
               id="path5525"
               style="fill:url(#linearGradient5579);fill-opacity:1;stroke:none;stroke-width:1.33423px;stroke-linecap:butt;stroke-linejoin:miter;stroke-opacity:1"
               d="m -191.74902,65.728805 c -10.57596,2.033121 -22.02995,3.286808 -34.11988,4.225065 -4.4451,7.539678 -7.92089,14.741797 -10.52752,21.061246 12.31143,3.099032 27.05216,6.465925 42.33178,7.192326 56.28256,2.675698 63.05248,-26.986983 63.05248,-26.986983 -0.5775,3.126032 -25.93923,1.165137 -60.73686,-5.491654 z"
               sodipodi:nodetypes="cccscc" /><path
               id="path5527"
               style="fill:url(#linearGradient5581);fill-opacity:1;stroke:none;stroke-width:1.33423px;stroke-linecap:butt;stroke-linejoin:miter;stroke-opacity:1"
               inkscape:transform-center-x="-50.488556"
               inkscape:transform-center-y="-8.4335461"
               d="m -124.19143,-0.26622122 c 1.125,3.55768382 -18.74807,16.71610922 -52.57918,18.56071222 -0.001,8.61e-4 -0.003,0.0017 -0.004,0.0026 -22.58727,14.04391 -38.55014,33.772268 -49.09416,51.656796 53.09561,-4.12056 93.97879,-14.272283 101.67734,-70.22010822 z"
               sodipodi:nodetypes="ccccc" /><path
               style="fill:url(#linearGradient5583);fill-opacity:1;stroke:none;stroke-width:1.33423px;stroke-linecap:butt;stroke-linejoin:miter;stroke-opacity:1"
               d="m -283.9854,61.86561 c 0,0 11.40053,-48.778283 61.57793,-70.3706843 46.93822,-20.1985137 89.34264,-88.8566897 87.54767,-92.5048157 0,0 5.64813,89.734066 -41.91511,119.30709 -48.45399,30.126861 -66.44773,86.41974 -65.77853,94.53041 -16.16125,-15.86343 -29.49858,-33.077077 -41.43196,-50.962 z"
               id="path5529"
               sodipodi:nodetypes="cscscc"
               inkscape:transform-center-x="-73.784401"
               inkscape:transform-center-y="-56.79291" /><path
               style="fill:url(#linearGradient5585);fill-opacity:1;stroke:none;stroke-width:1.33423px;stroke-linecap:butt;stroke-linejoin:miter;stroke-opacity:1"
               d="m -283.9854,61.86561 c 0,0 11.40053,-48.778283 61.57793,-70.3706843 46.93822,-20.1985137 89.34264,-88.8566897 87.54767,-92.5048157 0,0 5.64813,89.734066 -41.91511,119.30709 -48.45399,30.126861 -66.44773,86.41974 -65.77853,94.53041 -16.16125,-15.86343 -29.49858,-33.077077 -41.43196,-50.962 z"
               id="path5531"
               sodipodi:nodetypes="cscscc"
               inkscape:transform-center-x="-73.784401"
               inkscape:transform-center-y="-56.79291" /></g><g
             id="g5539"
             transform="translate(0.56536571)"
             style="stroke-width:5.04274"><path
               style="fill:#00ffdd;fill-opacity:1;stroke:none;stroke-width:1.33424px;stroke-linecap:butt;stroke-linejoin:miter;stroke-opacity:1"
               d="m -349.22531,112.6545 c 31.83631,18.43563 44.59729,47.013 53.46669,76.38559 8.0582,-26.13045 18.93488,-53.29174 53.18719,-76.71607 -16.9293,-33.331363 -37.2688,-65.573128 -37.74872,-104.1602593 h -28.85637 c -3.01343,36.3716203 -20.1936,70.6306373 -40.04879,104.4907393 z"
               id="path5535"
               sodipodi:nodetypes="cccccc" /><path
               style="fill:url(#linearGradient5587);fill-opacity:1;stroke:none;stroke-width:1.33424px;stroke-linecap:butt;stroke-linejoin:miter;stroke-opacity:1"
               d="m -295.75862,189.04009 c 8.0582,-26.13045 18.93488,-53.29174 53.18719,-76.71607 -16.9293,-33.331363 -37.2688,-65.573128 -37.74872,-104.1602593 h -15.57841 z"
               id="path5537"
               sodipodi:nodetypes="ccccc" /></g></g><g
           id="g5547"
           style="stroke-width:5.04274"><path
             style="fill:#ffd400;fill-opacity:1;stroke:none;stroke-width:1.33424px;stroke-linecap:butt;stroke-linejoin:miter;stroke-opacity:1"
             d="m -295.17558,-57.930294 c 6.64992,40.289973 41.69372,91.050827 0.20954,91.050827 -42.94081,0 -5.9729,-50.300173 -0.20954,-91.050827 z"
             id="path5543"
             sodipodi:nodetypes="csc" /><path
             id="path5545"
             style="fill:url(#linearGradient5589);fill-opacity:1;stroke:none;stroke-width:1.33424px;stroke-linecap:butt;stroke-linejoin:miter;stroke-opacity:1"
             d="m -295.17578,-57.930314 c -0.0199,0.140562 -0.044,0.282443 -0.0646,0.42323 v 90.624959 c 0.0921,4.7e-4 0.18158,0.0026 0.27441,0.0026 41.48413,0 6.4401,-50.76084 -0.20981,-91.050773 z" /></g></g></g></g></svg>
